<?xml version="1.0" standalone="no"?>
<svg
  width="600"
  height="600"
  viewBox="0 0 600 600"
  xmlns="http://www.w3.org/2000/svg"
>
  <g transform="translate(300,300)">
    <path d="M104.7,-161.6C142,-138.9,182.9,-120.6,193.7,-90.4C204.6,-60.2,185.4,-18.1,182.4,28.6C179.4,75.3,192.5,126.7,173.8,153.6C155.2,180.5,104.8,182.8,57.7,196.8C10.6,210.8,-33.2,236.4,-68.3,228.1C-103.4,219.8,-129.9,177.7,-160.8,140.3C-191.7,102.9,-227,70.3,-231.7,33.7C-236.4,-3,-210.5,-43.6,-184.9,-78.1C-159.3,-112.6,-134,-140.8,-103.2,-166.4C-72.4,-192.1,-36.2,-215,-1.3,-213.1C33.7,-211.1,67.4,-184.2,104.7,-161.6Z" fill="#db00ff" />
  </g>
</svg>
  