<?xml version="1.0" standalone="no"?>
<svg
  width="600"
  height="600"
  viewBox="0 0 600 600"
  xmlns="http://www.w3.org/2000/svg"
>
  <g transform="translate(300,300)">
    <path d="M94.9,-141.7C131.5,-124.2,175.3,-112.2,205.5,-83C235.6,-53.9,251.9,-7.7,235.4,26.4C218.9,60.4,169.5,82.3,138,120.6C106.4,159,92.6,213.8,64.8,223.2C36.9,232.5,-5.1,196.4,-46.7,176.3C-88.3,156.2,-129.5,152.1,-163.4,131.4C-197.3,110.7,-223.9,73.3,-234.2,30.9C-244.6,-11.4,-238.7,-58.9,-213.4,-90.4C-188,-121.9,-143.2,-137.5,-104.4,-154C-65.6,-170.4,-32.8,-187.7,-1.8,-184.9C29.2,-182.1,58.4,-159.2,94.9,-141.7Z" fill="#6100ff" />
  </g>
</svg>
  